<mxfile host="app.diagrams.net" agent="Mozilla/5.0 (Windows NT 10.0; Win64; x64) AppleWebKit/537.36 (KHTML, like Gecko) Chrome/131.0.0.0 Safari/537.36" version="24.9.2">
  <diagram name="Página-1" id="G3h_AN1pvklWyHpUArie">
    <mxGraphModel dx="989" dy="532" grid="1" gridSize="10" guides="1" tooltips="1" connect="1" arrows="1" fold="1" page="1" pageScale="1" pageWidth="827" pageHeight="1169" math="0" shadow="0">
      <root>
        <mxCell id="0" />
        <mxCell id="1" parent="0" />
        <mxCell id="U-aEQsb-_My8Pk0hautA-10" style="edgeStyle=orthogonalEdgeStyle;rounded=0;orthogonalLoop=1;jettySize=auto;html=1;entryX=0;entryY=0.5;entryDx=0;entryDy=0;" edge="1" parent="1" source="U-aEQsb-_My8Pk0hautA-7" target="U-aEQsb-_My8Pk0hautA-9">
          <mxGeometry relative="1" as="geometry" />
        </mxCell>
        <mxCell id="U-aEQsb-_My8Pk0hautA-7" value="Aluno" style="rounded=1;whiteSpace=wrap;html=1;" vertex="1" parent="1">
          <mxGeometry x="100" y="730" width="120" height="60" as="geometry" />
        </mxCell>
        <mxCell id="U-aEQsb-_My8Pk0hautA-11" style="edgeStyle=orthogonalEdgeStyle;rounded=0;orthogonalLoop=1;jettySize=auto;html=1;entryX=1;entryY=0.5;entryDx=0;entryDy=0;" edge="1" parent="1" source="U-aEQsb-_My8Pk0hautA-8" target="U-aEQsb-_My8Pk0hautA-9">
          <mxGeometry relative="1" as="geometry" />
        </mxCell>
        <mxCell id="U-aEQsb-_My8Pk0hautA-8" value="Turma" style="rounded=1;whiteSpace=wrap;html=1;" vertex="1" parent="1">
          <mxGeometry x="580" y="730" width="120" height="60" as="geometry" />
        </mxCell>
        <mxCell id="U-aEQsb-_My8Pk0hautA-9" value="&lt;font size=&quot;1&quot;&gt;Pertence&lt;/font&gt;" style="rhombus;whiteSpace=wrap;html=1;" vertex="1" parent="1">
          <mxGeometry x="350" y="725" width="90" height="70" as="geometry" />
        </mxCell>
        <mxCell id="U-aEQsb-_My8Pk0hautA-35" value="&lt;ul&gt;&lt;li&gt;ID (PK)&lt;/li&gt;&lt;li style=&quot;&quot;&gt;Nome&lt;/li&gt;&lt;li&gt;Endereço&lt;/li&gt;&lt;li&gt;CPF&lt;/li&gt;&lt;li&gt;Pedidos_ID(FK)&lt;/li&gt;&lt;/ul&gt;" style="text;html=1;align=left;verticalAlign=middle;resizable=0;points=[];autosize=1;strokeColor=none;fillColor=none;" vertex="1" parent="1">
          <mxGeometry x="85" y="780" width="150" height="110" as="geometry" />
        </mxCell>
        <mxCell id="U-aEQsb-_My8Pk0hautA-36" value="1, N" style="text;html=1;align=center;verticalAlign=middle;resizable=0;points=[];autosize=1;strokeColor=none;fillColor=none;" vertex="1" parent="1">
          <mxGeometry x="215" y="737" width="50" height="30" as="geometry" />
        </mxCell>
        <mxCell id="U-aEQsb-_My8Pk0hautA-37" value="1, 1" style="text;html=1;align=center;verticalAlign=middle;resizable=0;points=[];autosize=1;strokeColor=none;fillColor=none;" vertex="1" parent="1">
          <mxGeometry x="535" y="737" width="40" height="30" as="geometry" />
        </mxCell>
        <mxCell id="U-aEQsb-_My8Pk0hautA-43" value="&lt;ul&gt;&lt;li&gt;ID (PK)&lt;/li&gt;&lt;li&gt;Cliente_ID (FK)&lt;/li&gt;&lt;li&gt;Itens_escolhidos&lt;/li&gt;&lt;/ul&gt;" style="text;html=1;align=left;verticalAlign=middle;resizable=0;points=[];autosize=1;strokeColor=none;fillColor=none;" vertex="1" parent="1">
          <mxGeometry x="570" y="790" width="150" height="80" as="geometry" />
        </mxCell>
        <mxCell id="U-aEQsb-_My8Pk0hautA-44" style="edgeStyle=orthogonalEdgeStyle;rounded=0;orthogonalLoop=1;jettySize=auto;html=1;entryX=0;entryY=0.5;entryDx=0;entryDy=0;" edge="1" parent="1" source="U-aEQsb-_My8Pk0hautA-45" target="U-aEQsb-_My8Pk0hautA-48">
          <mxGeometry relative="1" as="geometry" />
        </mxCell>
        <mxCell id="U-aEQsb-_My8Pk0hautA-45" value="Cliente" style="rounded=1;whiteSpace=wrap;html=1;" vertex="1" parent="1">
          <mxGeometry x="100" y="730" width="120" height="60" as="geometry" />
        </mxCell>
        <mxCell id="U-aEQsb-_My8Pk0hautA-46" style="edgeStyle=orthogonalEdgeStyle;rounded=0;orthogonalLoop=1;jettySize=auto;html=1;entryX=1;entryY=0.5;entryDx=0;entryDy=0;" edge="1" parent="1" source="U-aEQsb-_My8Pk0hautA-47" target="U-aEQsb-_My8Pk0hautA-48">
          <mxGeometry relative="1" as="geometry" />
        </mxCell>
        <mxCell id="U-aEQsb-_My8Pk0hautA-47" value="Pedidos" style="rounded=1;whiteSpace=wrap;html=1;" vertex="1" parent="1">
          <mxGeometry x="580" y="730" width="120" height="60" as="geometry" />
        </mxCell>
        <mxCell id="U-aEQsb-_My8Pk0hautA-48" value="&lt;font size=&quot;1&quot;&gt;Pertence&lt;/font&gt;" style="rhombus;whiteSpace=wrap;html=1;" vertex="1" parent="1">
          <mxGeometry x="350" y="725" width="90" height="70" as="geometry" />
        </mxCell>
        <mxCell id="U-aEQsb-_My8Pk0hautA-50" value="1, N" style="text;html=1;align=center;verticalAlign=middle;resizable=0;points=[];autosize=1;strokeColor=none;fillColor=none;" vertex="1" parent="1">
          <mxGeometry x="215" y="737" width="50" height="30" as="geometry" />
        </mxCell>
      </root>
    </mxGraphModel>
  </diagram>
</mxfile>
